<!DOCTYPE svg PUBLIC "-//W3C//DTD SVG 1.1//EN" "http://www.w3.org/Graphics/SVG/1.1/DTD/svg11.dtd">
<svg xmlns="http://www.w3.org/2000/svg" xmlns:xlink="http://www.w3.org/1999/xlink" width="352px" height="251px" version="1.1" style="background: #fff"><defs/><g transform="translate(0.5,0.5)"><rect x="0" y="0" width="159" height="250" rx="14.31" ry="14.31" fill="#f5f5f5" stroke="#000000" pointer-events="none"/><rect x="10" y="10" width="140" height="180" rx="8.4" ry="8.4" fill="#ffcccc" stroke="#000000" pointer-events="none"/><g fill="#000000" font-family="Helvetica" text-anchor="middle" font-size="10px"><text x="79.5" y="102.5">.NET Standard 1.4</text></g><g fill="#000000" font-family="Helvetica" text-anchor="middle" font-size="10px"><text x="79" y="242.5">UWP Version 10</text></g><g fill="#CC0000" font-family="Helvetica" text-anchor="middle" font-size="10px"><text x="264.5" y="81.17">UWP Version 10 includes all the </text><text x="264.5" y="93.17">APIs for .NET Standard 1.4 and below.</text></g><rect x="10" y="10" width="140" height="150" rx="8.4" ry="8.4" fill="#ffcccc" stroke="#000000" pointer-events="none"/><g fill="#000000" font-family="Helvetica" text-anchor="middle" font-size="10px"><text x="79.5" y="87.5">.NET Standard 1.4</text></g><rect x="10" y="10" width="140" height="120" rx="7.2" ry="7.2" fill="#ffcccc" stroke="#000000" pointer-events="none"/><g fill="#000000" font-family="Helvetica" text-anchor="middle" font-size="10px"><text x="79.5" y="72.5">.NET Standard 1.4</text></g><rect x="10" y="10" width="140" height="90" rx="5.4" ry="5.4" fill="#99ccff" stroke="#000000" pointer-events="none"/><g fill="#000000" font-family="Helvetica" text-anchor="middle" font-size="10px"><text x="79.5" y="57.5">.NET Standard 1.4</text></g><rect x="10" y="10" width="140" height="90" rx="5.4" ry="5.4" fill="#ffcccc" stroke="#000000" pointer-events="none"/><g fill="#000000" font-family="Helvetica" text-anchor="middle" font-size="10px"><text x="79.5" y="57.5">.NET Standard 1.4</text></g><g fill="#000000" font-family="Helvetica" text-anchor="middle" font-size="10px"><text x="79" y="182.5">.NET Standard 1.4</text></g><g fill="#000000" font-family="Helvetica" text-anchor="middle" font-size="10px"><text x="77" y="152.5">.NET Standard 1.3</text></g><g fill="#000000" font-family="Helvetica" text-anchor="middle" font-size="10px"><text x="77" y="122.5">.NET Standard 1.2</text></g><rect x="10" y="10" width="140" height="60" rx="3.6" ry="3.6" fill="#ffcccc" stroke="#000000" pointer-events="none"/><g fill="#000000" font-family="Helvetica" text-anchor="middle" font-size="10px"><text x="79.5" y="42.5">.NET Standard 1.0</text></g><g fill="#000000" font-family="Helvetica" text-anchor="middle" font-size="10px"><text x="79" y="92.5">.NET Standard 1.1</text></g><g fill="#CC0000" font-family="Helvetica" text-anchor="middle" font-size="10px"><text x="264.5" y="211.17">It also includes platform-specific APIs</text><text x="264.5" y="223.17">that are not part of an .NET Standard.</text></g></g></svg>